<mxfile host="app.diagrams.net" agent="Mozilla/5.0 (Macintosh; Intel Mac OS X 10_15_7) AppleWebKit/537.36 (KHTML, like Gecko) Chrome/126.0.0.0 YaBrowser/24.7.0.0 Safari/537.36" version="24.7.14">
  <diagram name="Страница — 1" id="wMiGqEO-0glnp5uPPuF9">
    <mxGraphModel dx="1306" dy="761" grid="1" gridSize="10" guides="1" tooltips="1" connect="1" arrows="1" fold="1" page="1" pageScale="1" pageWidth="827" pageHeight="1169" math="0" shadow="0">
      <root>
        <mxCell id="0" />
        <mxCell id="1" parent="0" />
        <mxCell id="0hbwr7sFHVuIhFMwDFJ_-1" value="Point" style="swimlane;fontStyle=1;align=center;verticalAlign=top;childLayout=stackLayout;horizontal=1;startSize=26;horizontalStack=0;resizeParent=1;resizeParentMax=0;resizeLast=0;collapsible=1;marginBottom=0;whiteSpace=wrap;html=1;" parent="1" vertex="1">
          <mxGeometry x="670" y="430" width="140" height="130" as="geometry" />
        </mxCell>
        <mxCell id="0hbwr7sFHVuIhFMwDFJ_-2" value="- x: double&lt;div&gt;- y: double&lt;/div&gt;" style="text;strokeColor=none;fillColor=none;align=left;verticalAlign=top;spacingLeft=4;spacingRight=4;overflow=hidden;rotatable=0;points=[[0,0.5],[1,0.5]];portConstraint=eastwest;whiteSpace=wrap;html=1;" parent="0hbwr7sFHVuIhFMwDFJ_-1" vertex="1">
          <mxGeometry y="26" width="140" height="44" as="geometry" />
        </mxCell>
        <mxCell id="0hbwr7sFHVuIhFMwDFJ_-3" value="" style="line;strokeWidth=1;fillColor=none;align=left;verticalAlign=middle;spacingTop=-1;spacingLeft=3;spacingRight=3;rotatable=0;labelPosition=right;points=[];portConstraint=eastwest;strokeColor=inherit;" parent="0hbwr7sFHVuIhFMwDFJ_-1" vertex="1">
          <mxGeometry y="70" width="140" height="8" as="geometry" />
        </mxCell>
        <mxCell id="0hbwr7sFHVuIhFMwDFJ_-4" value="+ X( ): double&lt;div&gt;+ Y( ): double&lt;/div&gt;&lt;div&gt;+ ToString( ): string&lt;/div&gt;" style="text;strokeColor=none;fillColor=none;align=left;verticalAlign=top;spacingLeft=4;spacingRight=4;overflow=hidden;rotatable=0;points=[[0,0.5],[1,0.5]];portConstraint=eastwest;whiteSpace=wrap;html=1;" parent="0hbwr7sFHVuIhFMwDFJ_-1" vertex="1">
          <mxGeometry y="78" width="140" height="52" as="geometry" />
        </mxCell>
        <mxCell id="TDUOPgvpw1KU4WSMWXrI-15" style="edgeStyle=orthogonalEdgeStyle;rounded=0;orthogonalLoop=1;jettySize=auto;html=1;exitX=0.5;exitY=0;exitDx=0;exitDy=0;entryX=0.5;entryY=1;entryDx=0;entryDy=0;endArrow=block;endFill=0;endSize=12;dashed=1;" edge="1" parent="1" source="TDUOPgvpw1KU4WSMWXrI-1" target="TDUOPgvpw1KU4WSMWXrI-14">
          <mxGeometry relative="1" as="geometry" />
        </mxCell>
        <mxCell id="TDUOPgvpw1KU4WSMWXrI-1" value="DistanceComparer" style="swimlane;fontStyle=1;align=center;verticalAlign=top;childLayout=stackLayout;horizontal=1;startSize=26;horizontalStack=0;resizeParent=1;resizeParentMax=0;resizeLast=0;collapsible=1;marginBottom=0;whiteSpace=wrap;html=1;" vertex="1" parent="1">
          <mxGeometry x="350" y="290" width="170" height="66" as="geometry" />
        </mxCell>
        <mxCell id="TDUOPgvpw1KU4WSMWXrI-3" value="" style="line;strokeWidth=1;fillColor=none;align=left;verticalAlign=middle;spacingTop=-1;spacingLeft=3;spacingRight=3;rotatable=0;labelPosition=right;points=[];portConstraint=eastwest;strokeColor=inherit;" vertex="1" parent="TDUOPgvpw1KU4WSMWXrI-1">
          <mxGeometry y="26" width="170" height="14" as="geometry" />
        </mxCell>
        <mxCell id="TDUOPgvpw1KU4WSMWXrI-4" value="+ Compare(Point, Point): int" style="text;strokeColor=none;fillColor=none;align=left;verticalAlign=top;spacingLeft=4;spacingRight=4;overflow=hidden;rotatable=0;points=[[0,0.5],[1,0.5]];portConstraint=eastwest;whiteSpace=wrap;html=1;" vertex="1" parent="TDUOPgvpw1KU4WSMWXrI-1">
          <mxGeometry y="40" width="170" height="26" as="geometry" />
        </mxCell>
        <mxCell id="TDUOPgvpw1KU4WSMWXrI-16" style="edgeStyle=orthogonalEdgeStyle;rounded=0;orthogonalLoop=1;jettySize=auto;html=1;exitX=0.5;exitY=0;exitDx=0;exitDy=0;entryX=0.5;entryY=1;entryDx=0;entryDy=0;endArrow=block;endFill=0;endSize=12;dashed=1;" edge="1" parent="1" source="TDUOPgvpw1KU4WSMWXrI-5" target="TDUOPgvpw1KU4WSMWXrI-14">
          <mxGeometry relative="1" as="geometry" />
        </mxCell>
        <mxCell id="TDUOPgvpw1KU4WSMWXrI-5" value="XComparer" style="swimlane;fontStyle=1;align=center;verticalAlign=top;childLayout=stackLayout;horizontal=1;startSize=26;horizontalStack=0;resizeParent=1;resizeParentMax=0;resizeLast=0;collapsible=1;marginBottom=0;whiteSpace=wrap;html=1;" vertex="1" parent="1">
          <mxGeometry x="553" y="290" width="170" height="66" as="geometry" />
        </mxCell>
        <mxCell id="TDUOPgvpw1KU4WSMWXrI-6" value="" style="line;strokeWidth=1;fillColor=none;align=left;verticalAlign=middle;spacingTop=-1;spacingLeft=3;spacingRight=3;rotatable=0;labelPosition=right;points=[];portConstraint=eastwest;strokeColor=inherit;" vertex="1" parent="TDUOPgvpw1KU4WSMWXrI-5">
          <mxGeometry y="26" width="170" height="14" as="geometry" />
        </mxCell>
        <mxCell id="TDUOPgvpw1KU4WSMWXrI-7" value="+ Compare(Point, Point): int" style="text;strokeColor=none;fillColor=none;align=left;verticalAlign=top;spacingLeft=4;spacingRight=4;overflow=hidden;rotatable=0;points=[[0,0.5],[1,0.5]];portConstraint=eastwest;whiteSpace=wrap;html=1;" vertex="1" parent="TDUOPgvpw1KU4WSMWXrI-5">
          <mxGeometry y="40" width="170" height="26" as="geometry" />
        </mxCell>
        <mxCell id="TDUOPgvpw1KU4WSMWXrI-17" style="edgeStyle=orthogonalEdgeStyle;rounded=0;orthogonalLoop=1;jettySize=auto;html=1;exitX=0.5;exitY=0;exitDx=0;exitDy=0;entryX=0.5;entryY=1;entryDx=0;entryDy=0;endArrow=block;endFill=0;endSize=12;dashed=1;" edge="1" parent="1" source="TDUOPgvpw1KU4WSMWXrI-8" target="TDUOPgvpw1KU4WSMWXrI-14">
          <mxGeometry relative="1" as="geometry" />
        </mxCell>
        <mxCell id="TDUOPgvpw1KU4WSMWXrI-8" value="YComparer" style="swimlane;fontStyle=1;align=center;verticalAlign=top;childLayout=stackLayout;horizontal=1;startSize=26;horizontalStack=0;resizeParent=1;resizeParentMax=0;resizeLast=0;collapsible=1;marginBottom=0;whiteSpace=wrap;html=1;" vertex="1" parent="1">
          <mxGeometry x="757" y="290" width="170" height="66" as="geometry" />
        </mxCell>
        <mxCell id="TDUOPgvpw1KU4WSMWXrI-9" value="" style="line;strokeWidth=1;fillColor=none;align=left;verticalAlign=middle;spacingTop=-1;spacingLeft=3;spacingRight=3;rotatable=0;labelPosition=right;points=[];portConstraint=eastwest;strokeColor=inherit;" vertex="1" parent="TDUOPgvpw1KU4WSMWXrI-8">
          <mxGeometry y="26" width="170" height="14" as="geometry" />
        </mxCell>
        <mxCell id="TDUOPgvpw1KU4WSMWXrI-10" value="+ Compare(Point, Point): int" style="text;strokeColor=none;fillColor=none;align=left;verticalAlign=top;spacingLeft=4;spacingRight=4;overflow=hidden;rotatable=0;points=[[0,0.5],[1,0.5]];portConstraint=eastwest;whiteSpace=wrap;html=1;" vertex="1" parent="TDUOPgvpw1KU4WSMWXrI-8">
          <mxGeometry y="40" width="170" height="26" as="geometry" />
        </mxCell>
        <mxCell id="TDUOPgvpw1KU4WSMWXrI-14" value="&lt;b&gt;IComparer&amp;lt;Point&amp;gt;&lt;/b&gt;" style="rounded=0;whiteSpace=wrap;html=1;" vertex="1" parent="1">
          <mxGeometry x="680" y="190" width="120" height="50" as="geometry" />
        </mxCell>
        <mxCell id="TDUOPgvpw1KU4WSMWXrI-18" style="edgeStyle=orthogonalEdgeStyle;rounded=0;orthogonalLoop=1;jettySize=auto;html=1;exitX=0.5;exitY=0;exitDx=0;exitDy=0;entryX=0.5;entryY=1;entryDx=0;entryDy=0;endArrow=block;endFill=0;endSize=12;dashed=1;" edge="1" parent="1" source="TDUOPgvpw1KU4WSMWXrI-11" target="TDUOPgvpw1KU4WSMWXrI-14">
          <mxGeometry relative="1" as="geometry" />
        </mxCell>
        <mxCell id="TDUOPgvpw1KU4WSMWXrI-11" value="DiagComparer" style="swimlane;fontStyle=1;align=center;verticalAlign=top;childLayout=stackLayout;horizontal=1;startSize=26;horizontalStack=0;resizeParent=1;resizeParentMax=0;resizeLast=0;collapsible=1;marginBottom=0;whiteSpace=wrap;html=1;" vertex="1" parent="1">
          <mxGeometry x="960" y="290" width="170" height="66" as="geometry" />
        </mxCell>
        <mxCell id="TDUOPgvpw1KU4WSMWXrI-12" value="" style="line;strokeWidth=1;fillColor=none;align=left;verticalAlign=middle;spacingTop=-1;spacingLeft=3;spacingRight=3;rotatable=0;labelPosition=right;points=[];portConstraint=eastwest;strokeColor=inherit;" vertex="1" parent="TDUOPgvpw1KU4WSMWXrI-11">
          <mxGeometry y="26" width="170" height="14" as="geometry" />
        </mxCell>
        <mxCell id="TDUOPgvpw1KU4WSMWXrI-13" value="+ Compare(Point, Point): int" style="text;strokeColor=none;fillColor=none;align=left;verticalAlign=top;spacingLeft=4;spacingRight=4;overflow=hidden;rotatable=0;points=[[0,0.5],[1,0.5]];portConstraint=eastwest;whiteSpace=wrap;html=1;" vertex="1" parent="TDUOPgvpw1KU4WSMWXrI-11">
          <mxGeometry y="40" width="170" height="26" as="geometry" />
        </mxCell>
        <mxCell id="TDUOPgvpw1KU4WSMWXrI-19" style="edgeStyle=orthogonalEdgeStyle;rounded=0;orthogonalLoop=1;jettySize=auto;html=1;exitX=0.5;exitY=0;exitDx=0;exitDy=0;entryX=0.506;entryY=1.038;entryDx=0;entryDy=0;entryPerimeter=0;endArrow=none;endFill=0;startArrow=openThin;startFill=0;dashed=1;endSize=12;startSize=12;" edge="1" parent="1" source="0hbwr7sFHVuIhFMwDFJ_-1" target="TDUOPgvpw1KU4WSMWXrI-4">
          <mxGeometry relative="1" as="geometry" />
        </mxCell>
        <mxCell id="TDUOPgvpw1KU4WSMWXrI-20" style="edgeStyle=orthogonalEdgeStyle;rounded=0;orthogonalLoop=1;jettySize=auto;html=1;exitX=0.5;exitY=0;exitDx=0;exitDy=0;entryX=0.512;entryY=1.038;entryDx=0;entryDy=0;entryPerimeter=0;endArrow=none;endFill=0;startArrow=openThin;startFill=0;dashed=1;endSize=12;startSize=12;" edge="1" parent="1" source="0hbwr7sFHVuIhFMwDFJ_-1" target="TDUOPgvpw1KU4WSMWXrI-7">
          <mxGeometry relative="1" as="geometry" />
        </mxCell>
        <mxCell id="TDUOPgvpw1KU4WSMWXrI-21" style="edgeStyle=orthogonalEdgeStyle;rounded=0;orthogonalLoop=1;jettySize=auto;html=1;exitX=0.5;exitY=0;exitDx=0;exitDy=0;entryX=0.494;entryY=0.962;entryDx=0;entryDy=0;entryPerimeter=0;endArrow=none;endFill=0;startArrow=openThin;startFill=0;dashed=1;endSize=12;startSize=12;" edge="1" parent="1" source="0hbwr7sFHVuIhFMwDFJ_-1" target="TDUOPgvpw1KU4WSMWXrI-10">
          <mxGeometry relative="1" as="geometry" />
        </mxCell>
        <mxCell id="TDUOPgvpw1KU4WSMWXrI-22" style="edgeStyle=orthogonalEdgeStyle;rounded=0;orthogonalLoop=1;jettySize=auto;html=1;exitX=0.5;exitY=0;exitDx=0;exitDy=0;entryX=0.5;entryY=1;entryDx=0;entryDy=0;entryPerimeter=0;endArrow=none;endFill=0;startArrow=openThin;startFill=0;dashed=1;endSize=12;startSize=12;" edge="1" parent="1" source="0hbwr7sFHVuIhFMwDFJ_-1" target="TDUOPgvpw1KU4WSMWXrI-13">
          <mxGeometry relative="1" as="geometry" />
        </mxCell>
      </root>
    </mxGraphModel>
  </diagram>
</mxfile>
